<svg width="48" height="48" viewBox="0 0 48 48" fill="none" xmlns="http://www.w3.org/2000/svg">
<path fill-rule="evenodd" clip-rule="evenodd" d="M29.1038 27.9686H6C4.34315 27.9686 3 26.6254 3 24.9686V22.9686C3 21.3117 4.34315 19.9686 6 19.9686H29.1038L23.5452 14.9478C22.3156 13.8373 22.2191 11.9402 23.3297 10.7107L24.6703 9.22647C25.7808 7.99691 27.6779 7.90045 28.9074 9.01102L43.0028 21.7423C44.3216 22.9335 44.3216 25.0037 43.0028 26.1949L28.9074 38.9261C27.6779 40.0367 25.7808 39.9402 24.6703 38.7107L23.3297 37.2265C22.2191 35.9969 22.3156 34.0999 23.5452 32.9893L29.1038 27.9686Z" fill="white"/>
</svg>
