<svg width="128" height="32" viewBox="0 0 128 32" fill="none" xmlns="http://www.w3.org/2000/svg">
<path fill-rule="evenodd" clip-rule="evenodd" d="M29 16C29 23.732 22.732 30 15 30C7.26801 30 1 23.732 1 16C1 8.26801 7.26801 2 15 2C22.732 2 29 8.26801 29 16Z" fill="#081E39" fill-opacity="0.3"/>
<path d="M94.794 14.1084C92.7059 14.1084 91.4518 15.3913 91.4518 17.9242L91.4494 27.6048H86.4314V18.2166C86.4314 12.5326 89.5861 9.73872 94.5367 9.73872C95.7329 9.73403 96.9214 9.93934 98.0501 10.3457L96.8214 14.6398C96.1997 14.2915 95.5028 14.1087 94.794 14.1084Z" fill="#081E39" fill-opacity="0.3"/>
<path d="M57.745 4.54914C58.1912 4.21563 58.724 4.02455 59.276 4V4.00269C61.025 4.00269 62.1963 5.18408 62.1968 6.76358C62.2154 7.32836 62.07 7.8861 61.7792 8.36664C61.4885 8.84713 61.0652 9.22895 60.5625 9.46393C60.0598 9.69892 59.5003 9.77662 58.9546 9.68719C58.4088 9.59771 57.9009 9.34522 57.4953 8.96134C57.0898 8.57752 56.8042 8.07958 56.6751 7.5302C56.5455 6.98082 56.5785 6.40459 56.7688 5.87413C56.9592 5.34363 57.2988 4.8826 57.745 4.54914Z" fill="#081E39" fill-opacity="0.3"/>
<path d="M61.7749 27.6021H56.7564L56.7569 12.1717H61.7749V27.6021Z" fill="#081E39" fill-opacity="0.3"/>
<path d="M120.697 4.00269H125.71V27.6048H120.697V4.00269Z" fill="#081E39" fill-opacity="0.3"/>
<path fill-rule="evenodd" clip-rule="evenodd" d="M66.3296 26.1013C68.5449 27.3168 71.0252 27.9384 73.5395 27.9082V27.887C79.9737 27.8939 83.6172 24.2167 83.5914 18.8522C83.5914 13.2963 79.5935 9.6776 74.7419 9.6776C73.563 9.65345 72.3955 9.9123 71.3323 10.4333V4.00269H66.3296V26.1013ZM73.5965 23.8006C72.8341 23.7404 72.077 23.6211 71.3323 23.444V14.6893C72.076 14.1569 72.9646 13.8759 73.8729 13.8857C76.3814 13.8857 78.5212 15.5146 78.5212 18.8511C78.5212 21.9059 76.4594 23.9866 73.5965 23.8006Z" fill="#081E39" fill-opacity="0.3"/>
<path d="M52.5916 4.00269V19.5367C52.5916 25.226 49.7755 28.0199 44.4868 27.9981C42.5431 28.0373 40.6328 27.4821 39 26.4037L41.0824 22.2992C41.9141 23.1438 43.0338 23.6263 44.206 23.6454C46.2946 23.6454 47.3865 22.3625 47.3865 19.8348V4.00269H52.5916Z" fill="#081E39" fill-opacity="0.3"/>
<path fill-rule="evenodd" clip-rule="evenodd" d="M108.365 9.67545C103.091 9.67545 99.1353 13.4913 99.1353 18.781L99.1191 18.7794C99.1191 24.0371 103.008 27.8849 108.989 27.8849C112.108 27.8849 114.518 26.9006 116.126 25.0272L113.461 22.0681C112.889 22.6399 112.209 23.0864 111.463 23.3801C110.716 23.6739 109.919 23.8086 109.12 23.7761C106.48 23.7761 104.648 22.43 104.169 20.2265H117.266C117.274 20.1303 117.284 20.0274 117.294 19.921C117.328 19.5572 117.365 19.1536 117.365 18.8447C117.365 13.1613 113.44 9.67545 108.365 9.67545ZM112.638 17.2397H104.117C104.286 16.2097 104.807 15.2743 105.587 14.5997C106.367 13.9252 107.356 13.555 108.378 13.555C109.4 13.555 110.388 13.9252 111.168 14.5997C111.948 15.2743 112.469 16.2097 112.638 17.2397Z" fill="#081E39" fill-opacity="0.3"/>
</svg>
