<svg width="2014" height="592" viewBox="0 0 2014 592" fill="none" xmlns="http://www.w3.org/2000/svg">
<g filter="url(#filter0_d)">
<path d="M1347 510.5C1387 477 1425.5 508.5 1415.5 530.5C1405.5 552.5 1427.5 563 1448 552.5C1477.46 537.408 1509.47 539.271 1529.92 560.252C1533.27 563.692 1530.54 569 1525.74 569H1319C1319 569 1332.03 523.037 1347 510.5Z" fill="white"/>
<path d="M1347 510.5C1387 477 1425.5 508.5 1415.5 530.5C1405.5 552.5 1427.5 563 1448 552.5C1477.46 537.408 1509.47 539.271 1529.92 560.252C1533.27 563.692 1530.54 569 1525.74 569H1319C1319 569 1332.03 523.037 1347 510.5Z" fill="#003DC6" fill-opacity="0.2"/>
</g>
<g filter="url(#filter1_d)">
<path d="M125 493C151 470 197.045 477.068 258 516C318.955 554.932 335.5 520 376 520C411.821 520 414.5 568 369.5 568H141.371C108.5 559.5 98.9999 516 125 493Z" fill="white"/>
<path d="M125 493C151 470 197.045 477.068 258 516C318.955 554.932 335.5 520 376 520C411.821 520 414.5 568 369.5 568H141.371C108.5 559.5 98.9999 516 125 493Z" fill="#003DC6" fill-opacity="0.2"/>
</g>
<g opacity="0.4" filter="url(#filter2_f)">
<path d="M300 572C734 544 1427 196.001 1427 196.001C1427 196.001 1295 264 1205 342C1083 447.733 1118 549.001 1276 564.001L300 572Z" fill="#003DC6"/>
<path d="M300 572C734 544 1427 196.001 1427 196.001C1427 196.001 1295 264 1205 342C1083 447.733 1118 549.001 1276 564.001L300 572Z" fill="url(#paint0_linear)"/>
</g>
<path d="M296 576C728 566 1423 136.001 1423 136.001C1423 136.001 1196.84 282.479 1135 382.001C1066.65 492.001 1169 561.001 1327 576.001L296 576Z" fill="white"/>
<path d="M296 576C728 566 1423 136.001 1423 136.001C1423 136.001 1196.84 282.479 1135 382.001C1066.65 492.001 1169 561.001 1327 576.001L296 576Z" fill="#003DC6" fill-opacity="0.2"/>
<g filter="url(#filter3_d)">
<circle cx="106.5" cy="453.5" r="12.5" fill="white"/>
<circle cx="106.5" cy="453.5" r="12.5" fill="#003DC6" fill-opacity="0.2"/>
</g>
<g filter="url(#filter4_d)">
<path fill-rule="evenodd" clip-rule="evenodd" d="M596.054 563.024C872.487 481.552 1321.2 200.818 1408.15 145.505C1353.68 180.737 1164.86 306.204 1103.5 390.999C1056.31 456.211 1046.35 542.57 1152.76 569.879C1189.16 566.063 1220.7 560.188 1234 552.5C1244.5 546.432 1254.23 537.761 1265.09 528.09C1280.09 514.726 1297.24 499.453 1321.5 486.5C1359.18 466.38 1390.5 490.5 1382 524.5C1375.52 550.404 1381.44 557.413 1396.41 566.292C1401.63 569.388 1399.63 577 1393.56 577L64.1503 577C52.9071 577 41.5146 568.023 46.3687 557.882C56.247 537.244 95.2517 542.536 129.666 552.253C172.166 564.253 200.666 544.253 205.166 514.253C208.2 494.026 200.033 481.3 191.368 467.8C187.18 461.276 182.877 454.572 179.666 446.753C169.809 422.753 181.167 386.303 225.666 392.753C247.459 395.911 258.659 411.384 271.11 428.584C284.083 446.507 298.414 466.305 327.5 476C358.951 486.484 382.029 483.374 403.203 480.52C420.403 478.202 436.347 476.054 454.5 481.5C477.278 488.334 485.414 506.233 494.454 526.12C496.526 530.678 498.646 535.342 501 540C510.473 558.743 539.278 568.518 568 566.5C577.739 565.816 587.076 564.588 596.054 563.024ZM296.5 553C310.031 553 321 542.031 321 528.5C321 514.969 310.031 504 296.5 504C282.969 504 272 514.969 272 528.5C272 542.031 282.969 553 296.5 553ZM1360 506C1360 513.732 1353.73 520 1346 520C1338.27 520 1332 513.732 1332 506C1332 498.268 1338.27 492 1346 492C1353.73 492 1360 498.268 1360 506Z" fill="white"/>
<path fill-rule="evenodd" clip-rule="evenodd" d="M596.054 563.024C872.487 481.552 1321.2 200.818 1408.15 145.505C1353.68 180.737 1164.86 306.204 1103.5 390.999C1056.31 456.211 1046.35 542.57 1152.76 569.879C1189.16 566.063 1220.7 560.188 1234 552.5C1244.5 546.432 1254.23 537.761 1265.09 528.09C1280.09 514.726 1297.24 499.453 1321.5 486.5C1359.18 466.38 1390.5 490.5 1382 524.5C1375.52 550.404 1381.44 557.413 1396.41 566.292C1401.63 569.388 1399.63 577 1393.56 577L64.1503 577C52.9071 577 41.5146 568.023 46.3687 557.882C56.247 537.244 95.2517 542.536 129.666 552.253C172.166 564.253 200.666 544.253 205.166 514.253C208.2 494.026 200.033 481.3 191.368 467.8C187.18 461.276 182.877 454.572 179.666 446.753C169.809 422.753 181.167 386.303 225.666 392.753C247.459 395.911 258.659 411.384 271.11 428.584C284.083 446.507 298.414 466.305 327.5 476C358.951 486.484 382.029 483.374 403.203 480.52C420.403 478.202 436.347 476.054 454.5 481.5C477.278 488.334 485.414 506.233 494.454 526.12C496.526 530.678 498.646 535.342 501 540C510.473 558.743 539.278 568.518 568 566.5C577.739 565.816 587.076 564.588 596.054 563.024ZM296.5 553C310.031 553 321 542.031 321 528.5C321 514.969 310.031 504 296.5 504C282.969 504 272 514.969 272 528.5C272 542.031 282.969 553 296.5 553ZM1360 506C1360 513.732 1353.73 520 1346 520C1338.27 520 1332 513.732 1332 506C1332 498.268 1338.27 492 1346 492C1353.73 492 1360 498.268 1360 506Z" fill="#003DC6" fill-opacity="0.15"/>
<path d="M1423 135.999C1423 135.999 1417.59 139.396 1408.15 145.505C1417.81 139.362 1423 135.999 1423 135.999Z" fill="white"/>
<path d="M1423 135.999C1423 135.999 1417.59 139.396 1408.15 145.505C1417.81 139.362 1423 135.999 1423 135.999Z" fill="#003DC6" fill-opacity="0.15"/>
</g>
<g filter="url(#filter5_d)">
<circle cx="1470.04" cy="474.043" r="20.0435" fill="white"/>
<circle cx="1470.04" cy="474.043" r="20.0435" fill="#003DC6" fill-opacity="0.15"/>
</g>
<g filter="url(#filter6_d)">
<circle cx="374" cy="404" r="20" fill="white"/>
<circle cx="374" cy="404" r="20" fill="#003DC6" fill-opacity="0.1"/>
</g>
<g filter="url(#filter7_d)">
<path d="M359.535 584C354.685 584 353.515 574.802 358.103 573.232C375.98 567.113 392.999 558.733 393 549C393 541.749 389.935 535.062 387.058 528.782C381.799 517.307 377.165 507.195 393 497.5C405.546 489.818 430.55 500.757 458.207 512.856C484.556 524.383 513.313 536.964 536 535.5C558.292 534.062 549.557 522.052 538.663 507.072C526.833 490.805 512.456 471.036 532.499 457.5C558.68 439.819 605.999 469 612.999 504.5C620.671 543.406 628 576 672 576C706.027 576 734.747 568.886 775.316 547.768C901.663 482 1033.5 388.869 1165.87 301.837C1249.08 247.129 1331.27 193.094 1408.87 144.766C1355.86 177.925 1169.83 298.09 1074 390.5C1049.22 414.397 1014.91 457.5 1007.5 486.5C996.567 529.264 1014.46 576 1073.5 576C1095 576 1105.85 565.476 1127.45 543.967C1130.27 541.161 1133.27 538.173 1136.5 535C1164.5 507.5 1182 495.375 1206.5 501.5C1218.47 504.493 1216.24 514.588 1213.85 525.355C1211.36 536.624 1208.7 548.63 1222 554C1235.13 559.303 1246.6 551.852 1259.96 543.178C1273.05 534.677 1287.95 525 1308 525C1343.82 525 1349.5 584 1304.5 584L359.535 584Z" fill="white"/>
<path d="M359.535 584C354.685 584 353.515 574.802 358.103 573.232C375.98 567.113 392.999 558.733 393 549C393 541.749 389.935 535.062 387.058 528.782C381.799 517.307 377.165 507.195 393 497.5C405.546 489.818 430.55 500.757 458.207 512.856C484.556 524.383 513.313 536.964 536 535.5C558.292 534.062 549.557 522.052 538.663 507.072C526.833 490.805 512.456 471.036 532.499 457.5C558.68 439.819 605.999 469 612.999 504.5C620.671 543.406 628 576 672 576C706.027 576 734.747 568.886 775.316 547.768C901.663 482 1033.5 388.869 1165.87 301.837C1249.08 247.129 1331.27 193.094 1408.87 144.766C1355.86 177.925 1169.83 298.09 1074 390.5C1049.22 414.397 1014.91 457.5 1007.5 486.5C996.567 529.264 1014.46 576 1073.5 576C1095 576 1105.85 565.476 1127.45 543.967C1130.27 541.161 1133.27 538.173 1136.5 535C1164.5 507.5 1182 495.375 1206.5 501.5C1218.47 504.493 1216.24 514.588 1213.85 525.355C1211.36 536.624 1208.7 548.63 1222 554C1235.13 559.303 1246.6 551.852 1259.96 543.178C1273.05 534.677 1287.95 525 1308 525C1343.82 525 1349.5 584 1304.5 584L359.535 584Z" fill="#003DC6" fill-opacity="0.1"/>
<path d="M1423 136.001C1423 136.001 1417.91 139.114 1408.87 144.766C1413.6 141.823 1418.31 138.901 1423 136.001Z" fill="white"/>
<path d="M1423 136.001C1423 136.001 1417.91 139.114 1408.87 144.766C1413.6 141.823 1418.31 138.901 1423 136.001Z" fill="#003DC6" fill-opacity="0.1"/>
</g>
<g filter="url(#filter8_d)">
<circle cx="730" cy="473" r="12" fill="white"/>
<circle cx="730" cy="473" r="12" fill="#003DC6" fill-opacity="0.05"/>
</g>
<path d="M1425.64 132.846L1412 132.615L1453 114L1428.64 141L1425.64 132.846Z" fill="#003DC6"/>
<g opacity="0.05" filter="url(#filter9_f)">
<path d="M1422.51 198.66L1413.09 196.072L1444.83 190.469L1423.14 204.846L1422.51 198.66Z" fill="#003DC6"/>
</g>
<defs>
<filter id="filter0_d" x="1319" y="491.863" width="220.4" height="81.1369" filterUnits="userSpaceOnUse" color-interpolation-filters="sRGB">
<feFlood flood-opacity="0" result="BackgroundImageFix"/>
<feColorMatrix in="SourceAlpha" type="matrix" values="0 0 0 0 0 0 0 0 0 0 0 0 0 0 0 0 0 0 127 0"/>
<feOffset dx="4"/>
<feGaussianBlur stdDeviation="2"/>
<feColorMatrix type="matrix" values="0 0 0 0 0 0 0 0 0 0.239216 0 0 0 0 0.776471 0 0 0 0.3 0"/>
<feBlend mode="normal" in2="BackgroundImageFix" result="effect1_dropShadow"/>
<feBlend mode="normal" in="SourceGraphic" in2="effect1_dropShadow" result="shape"/>
</filter>
<filter id="filter1_d" x="110.059" y="475.904" width="301.016" height="96.0963" filterUnits="userSpaceOnUse" color-interpolation-filters="sRGB">
<feFlood flood-opacity="0" result="BackgroundImageFix"/>
<feColorMatrix in="SourceAlpha" type="matrix" values="0 0 0 0 0 0 0 0 0 0 0 0 0 0 0 0 0 0 127 0"/>
<feOffset dx="4"/>
<feGaussianBlur stdDeviation="2"/>
<feColorMatrix type="matrix" values="0 0 0 0 0 0 0 0 0 0.239216 0 0 0 0 0.776471 0 0 0 0.3 0"/>
<feBlend mode="normal" in2="BackgroundImageFix" result="effect1_dropShadow"/>
<feBlend mode="normal" in="SourceGraphic" in2="effect1_dropShadow" result="shape"/>
</filter>
<filter id="filter2_f" x="292" y="188.001" width="1143" height="392" filterUnits="userSpaceOnUse" color-interpolation-filters="sRGB">
<feFlood flood-opacity="0" result="BackgroundImageFix"/>
<feBlend mode="normal" in="SourceGraphic" in2="BackgroundImageFix" result="shape"/>
<feGaussianBlur stdDeviation="4" result="effect1_foregroundBlur"/>
</filter>
<filter id="filter3_d" x="94" y="437" width="33" height="33" filterUnits="userSpaceOnUse" color-interpolation-filters="sRGB">
<feFlood flood-opacity="0" result="BackgroundImageFix"/>
<feColorMatrix in="SourceAlpha" type="matrix" values="0 0 0 0 0 0 0 0 0 0 0 0 0 0 0 0 0 0 127 0"/>
<feOffset dx="4"/>
<feGaussianBlur stdDeviation="2"/>
<feColorMatrix type="matrix" values="0 0 0 0 0 0 0 0 0 0.239216 0 0 0 0 0.776471 0 0 0 0.3 0"/>
<feBlend mode="normal" in2="BackgroundImageFix" result="effect1_dropShadow"/>
<feBlend mode="normal" in="SourceGraphic" in2="effect1_dropShadow" result="shape"/>
</filter>
<filter id="filter4_d" x="45.219" y="131.999" width="1385.78" height="449.001" filterUnits="userSpaceOnUse" color-interpolation-filters="sRGB">
<feFlood flood-opacity="0" result="BackgroundImageFix"/>
<feColorMatrix in="SourceAlpha" type="matrix" values="0 0 0 0 0 0 0 0 0 0 0 0 0 0 0 0 0 0 127 0"/>
<feOffset dx="4"/>
<feGaussianBlur stdDeviation="2"/>
<feColorMatrix type="matrix" values="0 0 0 0 0 0 0 0 0 0.239216 0 0 0 0 0.776471 0 0 0 0.2 0"/>
<feBlend mode="normal" in2="BackgroundImageFix" result="effect1_dropShadow"/>
<feBlend mode="normal" in="SourceGraphic" in2="effect1_dropShadow" result="shape"/>
</filter>
<filter id="filter5_d" x="1450" y="450" width="48.087" height="48.087" filterUnits="userSpaceOnUse" color-interpolation-filters="sRGB">
<feFlood flood-opacity="0" result="BackgroundImageFix"/>
<feColorMatrix in="SourceAlpha" type="matrix" values="0 0 0 0 0 0 0 0 0 0 0 0 0 0 0 0 0 0 127 0"/>
<feOffset dx="4"/>
<feGaussianBlur stdDeviation="2"/>
<feColorMatrix type="matrix" values="0 0 0 0 0 0 0 0 0 0.239216 0 0 0 0 0.776471 0 0 0 0.25 0"/>
<feBlend mode="normal" in2="BackgroundImageFix" result="effect1_dropShadow"/>
<feBlend mode="normal" in="SourceGraphic" in2="effect1_dropShadow" result="shape"/>
</filter>
<filter id="filter6_d" x="354" y="380" width="48" height="48" filterUnits="userSpaceOnUse" color-interpolation-filters="sRGB">
<feFlood flood-opacity="0" result="BackgroundImageFix"/>
<feColorMatrix in="SourceAlpha" type="matrix" values="0 0 0 0 0 0 0 0 0 0 0 0 0 0 0 0 0 0 127 0"/>
<feOffset dx="4"/>
<feGaussianBlur stdDeviation="2"/>
<feColorMatrix type="matrix" values="0 0 0 0 0 0 0 0 0 0.239216 0 0 0 0 0.776471 0 0 0 0.15 0"/>
<feBlend mode="normal" in2="BackgroundImageFix" result="effect1_dropShadow"/>
<feBlend mode="normal" in="SourceGraphic" in2="effect1_dropShadow" result="shape"/>
</filter>
<filter id="filter7_d" x="355.213" y="132.001" width="1075.79" height="455.999" filterUnits="userSpaceOnUse" color-interpolation-filters="sRGB">
<feFlood flood-opacity="0" result="BackgroundImageFix"/>
<feColorMatrix in="SourceAlpha" type="matrix" values="0 0 0 0 0 0 0 0 0 0 0 0 0 0 0 0 0 0 127 0"/>
<feOffset dx="4"/>
<feGaussianBlur stdDeviation="2"/>
<feColorMatrix type="matrix" values="0 0 0 0 0 0 0 0 0 0.239216 0 0 0 0 0.776471 0 0 0 0.15 0"/>
<feBlend mode="normal" in2="BackgroundImageFix" result="effect1_dropShadow"/>
<feBlend mode="normal" in="SourceGraphic" in2="effect1_dropShadow" result="shape"/>
</filter>
<filter id="filter8_d" x="718" y="457" width="32" height="32" filterUnits="userSpaceOnUse" color-interpolation-filters="sRGB">
<feFlood flood-opacity="0" result="BackgroundImageFix"/>
<feColorMatrix in="SourceAlpha" type="matrix" values="0 0 0 0 0 0 0 0 0 0 0 0 0 0 0 0 0 0 127 0"/>
<feOffset dx="4"/>
<feGaussianBlur stdDeviation="2"/>
<feColorMatrix type="matrix" values="0 0 0 0 0 0 0 0 0 0.239216 0 0 0 0 0.776471 0 0 0 0.15 0"/>
<feBlend mode="normal" in2="BackgroundImageFix" result="effect1_dropShadow"/>
<feBlend mode="normal" in="SourceGraphic" in2="effect1_dropShadow" result="shape"/>
</filter>
<filter id="filter9_f" x="1403.09" y="180.469" width="51.7315" height="34.3765" filterUnits="userSpaceOnUse" color-interpolation-filters="sRGB">
<feFlood flood-opacity="0" result="BackgroundImageFix"/>
<feBlend mode="normal" in="SourceGraphic" in2="BackgroundImageFix" result="shape"/>
<feGaussianBlur stdDeviation="5" result="effect1_foregroundBlur"/>
</filter>
<linearGradient id="paint0_linear" x1="1307" y1="207" x2="1359.5" y2="544.5" gradientUnits="userSpaceOnUse">
<stop offset="0.213542" stop-color="white" stop-opacity="0.76"/>
<stop offset="1" stop-color="white" stop-opacity="0"/>
</linearGradient>
</defs>
</svg>
