<svg width="512" height="512" viewBox="0 0 512 512" fill="none" xmlns="http://www.w3.org/2000/svg">
<path d="M225.694 1C99.1114 16.267 1 124.423 1 255.578C1 259.958 1.10944 264.313 1.32574 268.639H1.438C1.438 269.503 1.44797 270.364 1.4678 271.223C1.75457 276.005 2.17193 280.752 2.71633 285.459C10.8759 338.655 57.1316 379.833 113.566 379.833C175.824 379.833 225.694 329.719 225.694 268.639V1Z" fill="#003DC6"/>
<path d="M101.115 459.146C144.169 492.296 198.042 512 256.5 512C397.609 512 512 397.196 512 255.578C512 215.259 502.728 177.113 486.207 143.172C460.626 181.242 417.405 206.344 368.19 206.344C345.514 206.344 324.11 201.015 305.118 191.544V268.639C305.118 374.404 219.026 459.543 113.566 459.543C109.384 459.543 105.232 459.409 101.115 459.146Z" fill="#003DC6"/>
<path d="M431.018 68.2914C428.177 101.207 400.9 126.634 368.19 126.634C333.619 126.634 305.118 98.2323 305.118 62.6059V3.7918C353.264 13.1005 396.598 35.9731 431.018 68.2914Z" fill="#003DC6"/>
</svg>
